<svg width="610" height="200" viewBox="0 0 610 200" fill="none" xmlns="http://www.w3.org/2000/svg">
<path d="M0.168823 73.2007C0.168823 53.8707 15.8389 38.2007 35.1688 38.2007H595.799C603.531 38.2007 609.799 44.4687 609.799 52.2007V123.756C609.799 141.981 595.024 156.756 576.799 156.756H18.1689C8.22774 156.756 0.168823 148.697 0.168823 138.756V73.2007Z" fill="#373756"/>
<path d="M292.165 195.3C292.165 197.397 290.465 199.097 288.369 199.097L247.663 199.097C245.566 199.097 243.866 197.397 243.866 195.3L243.866 177.216C243.866 175.119 245.566 173.419 247.663 173.419L288.369 173.419C290.465 173.419 292.165 175.119 292.165 177.216L292.165 195.3Z" fill="#373756"/>
<path d="M388.247 41.4608C388.247 43.5577 386.547 45.2576 384.45 45.2576L332.673 45.2576C330.577 45.2576 328.877 43.5577 328.877 41.4608L328.877 3.89047C328.877 1.79356 330.577 0.0936841 332.673 0.0936842L384.45 0.0936886C386.547 0.0936888 388.247 1.79356 388.247 3.89047L388.247 41.4608Z" fill="#373756"/>
<path d="M200 59.5634C200 36.0742 219.042 17.0325 242.531 17.0325H316.751C326.274 17.0325 333.993 24.7521 333.993 34.2747V142.822C333.993 162.502 318.039 178.456 298.359 178.456H217.242C207.72 178.456 200 170.736 200 161.214V59.5634Z" fill="#373756"/>
<path d="M317.24 123.239C317.24 135.832 312.501 146.063 303.029 153.927C293.552 161.797 280.689 165.729 264.433 165.729C255.035 165.729 246.842 164.796 239.855 162.939C232.868 161.083 226.327 158.722 220.23 155.855V125.205H223.431C229.476 130.642 236.243 134.821 243.737 137.738C251.231 140.654 258.432 142.114 265.34 142.114C267.121 142.114 269.453 141.944 272.349 141.598C275.246 141.252 277.606 140.681 279.438 139.879C281.675 138.847 283.517 137.562 284.965 136.019C286.413 134.475 287.134 132.185 287.134 129.148C287.134 126.348 286.081 123.926 283.973 121.894C281.866 119.862 278.778 118.302 274.716 117.215C270.451 116.072 265.937 114.996 261.187 113.996C256.438 112.997 251.975 111.723 247.811 110.174C238.261 106.681 231.386 101.947 227.2 95.9669C223.008 89.9864 220.912 82.5614 220.912 73.6922C220.912 61.7915 225.651 52.0765 235.122 44.5472C244.594 37.0235 256.776 33.2561 271.662 33.2561C279.133 33.2561 286.509 34.0744 293.8 35.7C301.091 37.331 307.402 39.3795 312.738 41.8398V71.2868H309.616C305.041 67.1679 299.44 63.7191 292.814 60.9402C286.182 58.1669 279.415 56.7775 272.507 56.7775C270.067 56.7775 267.645 56.9642 265.227 57.3376C262.816 57.7111 260.489 58.4085 258.252 59.441C256.269 60.2977 254.567 61.5993 253.147 63.3457C251.721 65.092 251.012 67.0801 251.012 69.3097C251.012 72.6872 252.155 75.2738 254.443 77.0806C256.731 78.8819 261.047 80.5295 267.397 82.0178C271.561 82.9898 275.561 83.9344 279.398 84.8515C283.235 85.7687 287.36 87.0263 291.783 88.6299C300.471 91.8371 306.883 96.1976 311.025 101.722C315.166 107.247 317.234 114.414 317.234 123.228L317.24 123.239Z" fill="white"/>
<path d="M317.24 123.239C317.24 135.832 312.501 146.063 303.029 153.927C293.552 161.797 280.689 165.729 264.433 165.729C255.035 165.729 246.842 164.796 239.855 162.939C232.868 161.083 226.327 158.722 220.23 155.855V125.205H223.431C229.476 130.642 236.243 134.821 243.737 137.738C251.231 140.654 258.432 142.114 265.34 142.114C267.121 142.114 269.453 141.944 272.349 141.598C275.246 141.252 277.606 140.681 279.438 139.879C281.675 138.847 283.517 137.562 284.965 136.019C286.413 134.475 287.134 132.185 287.134 129.148C287.134 126.348 286.081 123.926 283.973 121.894C281.866 119.862 278.778 118.302 274.716 117.215C270.451 116.072 265.937 114.996 261.187 113.996C256.438 112.997 251.975 111.723 247.811 110.174C238.261 106.681 231.386 101.947 227.2 95.9669C223.008 89.9864 220.912 82.5614 220.912 73.6922C220.912 61.7915 225.651 52.0765 235.122 44.5472C244.594 37.0235 256.776 33.2561 271.662 33.2561C279.133 33.2561 286.509 34.0744 293.8 35.7C301.091 37.331 307.402 39.3795 312.738 41.8398V71.2868H309.616C305.041 67.1679 299.44 63.7191 292.814 60.9402C286.182 58.1669 279.415 56.7775 272.507 56.7775C270.067 56.7775 267.645 56.9642 265.227 57.3376C262.816 57.7111 260.489 58.4085 258.252 59.441C256.269 60.2977 254.567 61.5993 253.147 63.3457C251.721 65.092 251.012 67.0801 251.012 69.3097C251.012 72.6872 252.155 75.2738 254.443 77.0806C256.731 78.8819 261.047 80.5295 267.397 82.0178C271.561 82.9898 275.561 83.9344 279.398 84.8515C283.235 85.7687 287.36 87.0263 291.783 88.6299C300.471 91.8371 306.883 96.1976 311.025 101.722C315.166 107.247 317.234 114.414 317.234 123.228L317.24 123.239Z" stroke="#4D4D8B"/>
<rect x="261.41" y="17.77" width="19.2428" height="29.4726" rx="1.89839" fill="white"/>
<rect x="277.904" y="186.568" width="19.2428" height="29.4726" rx="1.89839" transform="rotate(-180 277.904 186.568)" fill="white"/>
<path d="M63.3924 142.62C56.2966 142.62 49.742 141.652 43.7346 139.717C37.7273 137.781 32.5645 134.894 28.2463 131.061C23.9281 127.229 20.5795 122.445 18.2062 116.715C15.833 110.985 14.6494 104.364 14.6494 96.8524C14.6494 89.8577 15.7795 83.5119 18.0457 77.8205C20.3118 72.1291 23.601 67.246 27.9251 63.1767C32.0708 59.2615 37.2157 56.2371 43.348 54.1035C49.4803 51.9699 56.1836 50.9031 63.4519 50.9031C67.4727 50.9031 71.095 51.112 74.3247 51.5245C77.5544 51.9369 80.5343 52.4813 83.2703 53.1576C86.1372 53.911 88.7305 54.7468 91.062 55.6762C93.3936 56.6055 95.4337 57.4633 97.1884 58.2552V79.6626H94.3631C93.1676 78.7168 91.6568 77.6005 89.8427 76.3028C88.0227 75.005 85.9647 73.7237 83.651 72.4645C81.3015 71.2052 78.7558 70.1439 76.0198 69.2806C73.2838 68.4173 70.3515 67.9828 67.2348 67.9828C63.7731 67.9828 60.478 68.4887 57.3553 69.4951C54.2327 70.5014 51.3479 72.1675 48.6952 74.4936C46.1733 76.7427 44.1331 79.7231 42.5688 83.4294C41.0105 87.1357 40.2254 91.6339 40.2254 96.9184C40.2254 102.203 41.07 107.058 42.7592 110.765C44.4484 114.477 46.5777 117.391 49.1413 119.525C51.7464 121.697 54.655 123.242 57.8668 124.171C61.0728 125.101 64.237 125.562 67.3597 125.562C70.4823 125.562 73.3135 125.15 76.2399 124.325C79.1662 123.5 81.8726 122.379 84.3528 120.96C86.4465 119.822 88.3914 118.601 90.1877 117.303C91.984 116.005 93.4591 114.883 94.6129 113.938H97.1765V135.048C94.7795 136.038 92.4955 136.967 90.3126 137.836C88.1297 138.705 85.8457 139.458 83.4487 140.091C80.3261 140.921 77.3997 141.553 74.6637 141.988C71.9277 142.422 68.1626 142.642 63.3746 142.642L63.3924 142.62Z" fill="white"/>
<path d="M167.002 131.467C165.524 132.566 163.701 133.895 161.517 135.44C159.333 136.992 157.276 138.217 155.346 139.114C152.653 140.318 149.861 141.202 146.963 141.779C144.065 142.357 140.891 142.642 137.435 142.642C129.306 142.642 122.499 140.165 117.007 135.21C111.522 130.256 108.773 123.931 108.773 116.228C108.773 110.076 110.172 105.045 112.964 101.148C115.756 97.2446 119.722 94.1689 124.853 91.9213C129.935 89.6737 136.233 88.0732 143.754 87.1199C151.275 86.1736 159.071 85.4708 167.15 85.0184V84.5661C167.15 79.9109 165.22 76.703 161.354 74.9216C157.495 73.1471 151.798 72.2565 144.284 72.2565C139.76 72.2565 134.933 73.0428 129.801 74.6224C124.669 76.195 120.987 77.4127 118.753 78.2617H116.237V57.9288C119.135 57.1773 123.842 56.2935 130.374 55.2637C136.905 54.2408 143.443 53.7258 150.002 53.7258C165.602 53.7258 176.869 56.0917 183.803 60.8166C190.737 65.5415 194.208 72.9593 194.208 83.0631V140.388H166.995V131.46L167.002 131.467ZM167.002 118.357V100.856C163.291 101.155 159.276 101.566 154.957 102.088C150.639 102.61 147.359 103.222 145.125 103.918C142.383 104.767 140.283 105.998 138.834 107.62C137.385 109.241 136.664 111.37 136.664 114.015C136.664 115.761 136.82 117.181 137.124 118.28C137.428 119.38 138.191 120.424 139.414 121.419C140.58 122.414 141.98 123.151 143.606 123.625C145.231 124.098 147.769 124.334 151.225 124.334C153.968 124.334 156.753 123.785 159.573 122.692C162.393 121.593 164.867 120.152 167.002 118.35V118.357Z" fill="white"/>
<path d="M373.766 38.5744H343.357V17.0302H373.766V38.5744ZM372.967 139.819H344.149V51.2054H372.967V139.819Z" fill="white"/>
<path d="M483.818 139.819H454.622V96.22C454.622 92.6702 454.434 89.1349 454.059 85.6141C453.684 82.0933 453.032 79.4945 452.117 77.8248C451.037 75.8939 449.462 74.4856 447.384 73.5999C445.307 72.7143 442.412 72.2715 438.692 72.2715C436.052 72.2715 433.367 72.6925 430.645 73.5201C427.922 74.3549 424.967 75.6833 421.788 77.5127V139.819H392.591V51.9163H421.788V61.622C426.955 57.7093 431.92 54.7112 436.69 52.6205C441.452 50.5298 446.747 49.4917 452.559 49.4917C462.361 49.4917 470.019 52.2575 475.538 57.7891C481.058 63.3207 483.818 71.5963 483.818 82.6015V139.819Z" fill="white"/>
<path d="M596.759 99.6358C596.759 114.27 592.382 125.803 583.643 134.234C574.897 142.665 562.617 146.876 546.805 146.876C530.992 146.876 518.713 142.665 509.966 134.234C501.22 125.803 496.851 114.278 496.851 99.6358C496.851 84.994 501.25 73.3217 510.049 64.9203C518.848 56.5188 531.098 52.3145 546.805 52.3145C562.512 52.3145 575.032 56.5409 583.726 64.9938C592.42 73.4466 596.766 84.994 596.766 99.6285L596.759 99.6358ZM560.772 121.275C562.67 119.004 564.086 116.27 565.036 113.072C565.985 109.875 566.459 105.45 566.459 99.7975C566.459 94.5641 565.97 90.1833 564.998 86.6405C564.026 83.0976 562.67 80.2751 560.937 78.1582C559.205 75.9898 557.118 74.461 554.685 73.5642C552.251 72.6675 549.622 72.2191 546.805 72.2191C543.987 72.2191 541.486 72.5866 539.294 73.329C537.102 74.0714 535 75.5488 532.996 77.7686C531.211 79.8267 529.787 82.6566 528.732 86.2509C527.677 89.8452 527.15 94.3656 527.15 99.8049C527.15 104.663 527.61 108.883 528.529 112.447C529.448 116.012 530.804 118.879 532.589 121.047C534.322 123.105 536.394 124.612 538.804 125.568C541.215 126.516 543.965 126.994 547.053 126.994C549.705 126.994 552.236 126.56 554.647 125.685C557.058 124.811 559.099 123.348 560.779 121.29L560.772 121.275Z" fill="white"/>
</svg>
